<svg version="1.1" id="Layer_1" xmlns="http://www.w3.org/2000/svg" xmlns:xlink="http://www.w3.org/1999/xlink" x="0px" y="0px"
	 width="100%" viewBox="0 0 98 95" enable-background="new 0 0 98 95" xml:space="preserve">
<path fill="#FFFDFE" opacity="1.000000" stroke="none" 
	d="
M62.000000,96.000000 
	C41.333332,96.000000 21.166666,96.000000 1.000000,96.000000 
	C1.000000,64.333336 1.000000,32.666668 1.000000,1.000000 
	C33.666668,1.000000 66.333336,1.000000 99.000000,1.000000 
	C99.000000,32.666668 99.000000,64.333336 99.000000,96.000000 
	C86.833336,96.000000 74.666664,96.000000 62.000000,96.000000 
M8.740567,73.465851 
	C8.741552,83.750351 8.741881,83.753975 19.119478,82.811958 
	C19.395514,82.786896 19.644983,82.469177 20.541260,81.848831 
	C20.541260,76.821602 20.505838,71.354897 20.550650,65.888840 
	C20.601278,59.713364 21.451132,58.791946 27.356340,58.777245 
	C42.841396,58.738697 58.326626,58.753235 73.811729,58.779240 
	C75.226776,58.781616 76.641418,59.018276 78.266876,59.165180 
	C78.266876,66.011215 78.099838,72.339264 78.390007,78.646278 
	C78.458412,80.133049 79.847458,82.541878 81.011078,82.799301 
	C83.787704,83.413559 86.792282,82.997459 89.912987,82.997459 
	C89.912987,65.036430 90.252785,47.899944 89.767853,30.786827 
	C89.529816,22.386806 83.373947,16.452587 74.773323,16.221083 
	C57.806828,15.764394 40.810867,15.762710 23.844366,16.217440 
	C15.455346,16.442280 9.907730,22.407581 9.040123,30.461891 
	C8.814828,32.553379 7.630245,35.889580 11.363983,35.732239 
	C14.508862,35.599709 19.147358,38.390419 20.541245,32.844738 
	C21.399708,29.429266 23.449276,27.363243 26.719860,27.324593 
	C41.699818,27.147570 56.688099,27.030985 71.658691,27.436012 
	C73.774788,27.493265 77.232018,30.278048 77.599037,32.258110 
	C78.477043,36.994923 77.882599,42.004658 77.882599,47.193394 
	C65.440262,47.193394 53.467682,47.130596 41.496197,47.218128 
	C34.848766,47.266735 28.155876,47.137367 21.568993,47.863716 
	C13.740265,48.726994 9.783789,53.158024 9.019515,61.004627 
	C8.649531,64.803154 8.816473,68.653992 8.740567,73.465851 
z"/>
<path fill="#ED3177" opacity="1.000000" stroke="none" 
	d="
M8.740442,72.973495 
	C8.816473,68.653992 8.649531,64.803154 9.019515,61.004627 
	C9.783789,53.158024 13.740265,48.726994 21.568993,47.863716 
	C28.155876,47.137367 34.848766,47.266735 41.496197,47.218128 
	C53.467682,47.130596 65.440262,47.193394 77.882599,47.193394 
	C77.882599,42.004658 78.477043,36.994923 77.599037,32.258110 
	C77.232018,30.278048 73.774788,27.493265 71.658691,27.436012 
	C56.688099,27.030985 41.699818,27.147570 26.719860,27.324593 
	C23.449276,27.363243 21.399708,29.429266 20.541245,32.844738 
	C19.147358,38.390419 14.508862,35.599709 11.363983,35.732239 
	C7.630245,35.889580 8.814828,32.553379 9.040123,30.461891 
	C9.907730,22.407581 15.455346,16.442280 23.844366,16.217440 
	C40.810867,15.762710 57.806828,15.764394 74.773323,16.221083 
	C83.373947,16.452587 89.529816,22.386806 89.767853,30.786827 
	C90.252785,47.899944 89.912987,65.036430 89.912987,82.997459 
	C86.792282,82.997459 83.787704,83.413559 81.011078,82.799301 
	C79.847458,82.541878 78.458412,80.133049 78.390007,78.646278 
	C78.099838,72.339264 78.266876,66.011215 78.266876,59.165180 
	C76.641418,59.018276 75.226776,58.781616 73.811729,58.779240 
	C58.326626,58.753235 42.841396,58.738697 27.356340,58.777245 
	C21.451132,58.791946 20.601278,59.713364 20.550650,65.888840 
	C20.505838,71.354897 20.541260,76.821602 20.541260,81.848831 
	C19.644983,82.469177 19.395514,82.786896 19.119478,82.811958 
	C8.741881,83.753975 8.741552,83.750351 8.740442,72.973495 
z"/>
</svg>