<?xml version="1.0" encoding="UTF-8" standalone="no"?>
<svg
   version="1.1"
   id="Layer_1"
   x="0px"
   y="0px"
   width="100%"
   viewBox="0 0 98 95"
   enable-background="new 0 0 98 95"
   xml:space="preserve"
   sodipodi:docname="pado-icon.svg"
   inkscape:version="1.3 (0e150ed6c4, 2023-07-21)"
   xmlns:inkscape="http://www.inkscape.org/namespaces/inkscape"
   xmlns:sodipodi="http://sodipodi.sourceforge.net/DTD/sodipodi-0.dtd"
   xmlns="http://www.w3.org/2000/svg"
   xmlns:svg="http://www.w3.org/2000/svg"><defs
   id="defs2" /><sodipodi:namedview
   id="namedview2"
   pagecolor="#ffffff"
   bordercolor="#000000"
   borderopacity="0.25"
   inkscape:showpageshadow="2"
   inkscape:pageopacity="0.0"
   inkscape:pagecheckerboard="0"
   inkscape:deskcolor="#d1d1d1"
   inkscape:zoom="5.2736842"
   inkscape:cx="48.922156"
   inkscape:cy="32.330339"
   inkscape:window-width="1366"
   inkscape:window-height="697"
   inkscape:window-x="-8"
   inkscape:window-y="-8"
   inkscape:window-maximized="1"
   inkscape:current-layer="Layer_1" />&#10;<path
   fill="#FFFDFE"
   opacity="1.000000"
   stroke="none"
   d=" M62.000000,96.000000   C41.333332,96.000000 21.166666,96.000000 1.000000,96.000000   C1.000000,64.333336 1.000000,32.666668 1.000000,1.000000   C33.666668,1.000000 66.333336,1.000000 99.000000,1.000000   C99.000000,32.666668 99.000000,64.333336 99.000000,96.000000   C86.833336,96.000000 74.666664,96.000000 62.000000,96.000000  M8.740567,73.465851   C8.741552,83.750351 8.741881,83.753975 19.119478,82.811958   C19.395514,82.786896 19.644983,82.469177 20.541260,81.848831   C20.541260,76.821602 20.505838,71.354897 20.550650,65.888840   C20.601278,59.713364 21.451132,58.791946 27.356340,58.777245   C42.841396,58.738697 58.326626,58.753235 73.811729,58.779240   C75.226776,58.781616 76.641418,59.018276 78.266876,59.165180   C78.266876,66.011215 78.099838,72.339264 78.390007,78.646278   C78.458412,80.133049 79.847458,82.541878 81.011078,82.799301   C83.787704,83.413559 86.792282,82.997459 89.912987,82.997459   C89.912987,65.036430 90.252785,47.899944 89.767853,30.786827   C89.529816,22.386806 83.373947,16.452587 74.773323,16.221083   C57.806828,15.764394 40.810867,15.762710 23.844366,16.217440   C15.455346,16.442280 9.907730,22.407581 9.040123,30.461891   C8.814828,32.553379 7.630245,35.889580 11.363983,35.732239   C14.508862,35.599709 19.147358,38.390419 20.541245,32.844738   C21.399708,29.429266 23.449276,27.363243 26.719860,27.324593   C41.699818,27.147570 56.688099,27.030985 71.658691,27.436012   C73.774788,27.493265 77.232018,30.278048 77.599037,32.258110   C78.477043,36.994923 77.882599,42.004658 77.882599,47.193394   C65.440262,47.193394 53.467682,47.130596 41.496197,47.218128   C34.848766,47.266735 28.155876,47.137367 21.568993,47.863716   C13.740265,48.726994 9.783789,53.158024 9.019515,61.004627   C8.649531,64.803154 8.816473,68.653992 8.740567,73.465851  z"
   id="path1"
   style="fill:#fffdfe;fill-opacity:0" />&#10;<path
   fill="#ed3177"
   opacity="1"
   stroke="none"
   d="M 8.5508212,71.266909 C 8.6268522,66.947406 8.4599102,63.096568 8.8298942,59.298041 9.5941687,51.451438 13.550645,47.020408 21.379373,46.15713 c 6.586883,-0.726349 13.279773,-0.596981 19.927204,-0.645588 11.971485,-0.08753 23.944065,-0.02473 36.386402,-0.02473 0,-5.188736 0.594444,-10.198471 -0.283562,-14.935284 -0.367019,-1.980066 -3.824249,-4.764849 -5.940346,-4.822102 -14.970592,-0.405027 -29.958873,-0.288442 -44.938831,-0.111419 -3.270584,0.03865 -5.320152,2.104673 -6.178615,5.520145 -1.393887,5.545681 -6.032383,2.754971 -9.177262,2.887501 -3.7337388,0.157341 -2.5491558,-3.17886 -2.3238608,-5.270348 0.8676075,-8.05431 6.4152238,-14.019611 14.8042438,-14.244451 16.966501,-0.45473 33.962462,-0.453046 50.928957,0.0036 8.600624,0.231504 14.756493,6.165723 14.99453,14.565744 0.484932,17.113117 0.145134,34.249603 0.145134,52.210632 -3.120705,0 -6.125283,0.4161 -8.901909,-0.198158 -1.16362,-0.257423 -2.552666,-2.666252 -2.621071,-4.153023 -0.290169,-6.307014 -0.123131,-12.635063 -0.123131,-19.481098 -1.625458,-0.146904 -3.0401,-0.383564 -4.455147,-0.38594 -15.485103,-0.026 -30.970333,-0.04054 -46.455389,-0.002 -5.905208,0.0147 -6.755062,0.936119 -6.80569,7.111595 -0.04481,5.466057 -0.0094,10.932762 -0.0094,15.959991 -0.896277,0.620346 -1.145746,0.938065 -1.421782,0.963127 C 8.5522602,82.047389 8.5519312,82.043765 8.5508212,71.266909 Z"
   id="path2" />&#10;</svg>
